<?xml version="1.0" encoding="UTF-8"?>
<svg id="Calque_1" data-name="Calque 1" xmlns="http://www.w3.org/2000/svg" viewBox="0 0 1152.1 1080">
  <defs>
    <style>
      .cls-1 {
        fill: none;
      }

      .cls-1, .cls-2, .cls-3 {
        stroke-width: 0px;
      }

      .cls-2 {
        fill: #071424;
      }

      .cls-3 {
        fill: #00cb63;
      }
    </style>
  </defs>
  <rect class="cls-1" x="-5.76" y="-5.4" width="1163.62" height="1090.8"/>
  <g>
    <path class="cls-2" d="M259.47,495.49c0-74.59,57.22-134.87,129.76-134.87h.51c72.54,0,128.74,60.8,128.74,134.87s-56.2,134.87-128.74,134.87h-.51c-72.54,0-129.76-60.28-129.76-134.87ZM389.74,570.08c38.83,0,67.95-33.72,67.95-74.59s-29.12-74.59-67.95-74.59h-.51c-39.34,0-68.46,33.72-68.46,74.59s29.12,74.59,68.46,74.59h.51Z"/>
    <path class="cls-2" d="M619.99,627.29h-60.79v-367.83h60.79v367.83Z"/>
    <path class="cls-2" d="M776.07,531.56c-41,0-82.01-15.61-113.22-46.82l40.03-40.03c40.36,40.36,106.04,40.36,146.4,0l40.03,40.03c-31.22,31.21-72.22,46.82-113.22,46.82Z"/>
    <path class="cls-3" d="M589.59,820.8c-89.25,0-167.9-53.74-200.38-136.9l52.87-20.65c23.91,61.23,81.81,100.79,147.51,100.79s123.59-39.56,147.51-100.79l52.87,20.65c-32.48,83.16-111.13,136.9-200.38,136.9Z"/>
  </g>
</svg>